<svg width="70" height="85" viewBox="0 0 70 85" fill="none" xmlns="http://www.w3.org/2000/svg">
<path d="M68.9431 73.266L54.6316 48.4776C59.926 43.3445 63.2224 36.1619 63.2224 28.2227C63.2224 12.6607 50.5619 0 34.9998 0C19.4376 0 6.7771 12.6607 6.7771 28.2227C6.7771 36.1619 10.0735 43.3445 15.3681 48.4777L1.05637 73.266C0.720519 73.8479 0.768331 74.5749 1.17773 75.1076C1.58695 75.6402 2.27708 75.8736 2.92604 75.6991L13.9584 72.7268L16.9006 83.7673C17.0736 84.4166 17.6207 84.8976 18.287 84.9857C18.36 84.9954 18.4329 85.0002 18.5053 85.0002C19.0926 85.0002 19.6433 84.6881 19.9425 84.1701L34.9998 58.0899L50.057 84.1699C50.3562 84.6881 50.907 85 51.4942 85C51.5666 85 51.6395 84.9952 51.7126 84.9856C52.3786 84.8974 52.926 84.4165 53.0989 83.7672L56.0411 72.7266L67.0736 75.699C67.7228 75.874 68.4126 75.6402 68.822 75.1075C69.2313 74.5749 69.2792 73.8479 68.9431 73.266ZM10.0974 28.2227C10.0974 14.4915 21.2686 3.32031 34.9998 3.32031C48.7309 3.32031 59.9021 14.4915 59.9021 28.2227C59.9021 41.9538 48.7309 53.125 34.9998 53.125C21.2686 53.125 10.0974 41.9538 10.0974 28.2227ZM19.0749 79.0321L16.7382 70.2633C16.6247 69.8371 16.3461 69.4736 15.9641 69.2531C15.5821 69.0325 15.1282 68.973 14.702 69.0877L5.93972 71.4485L17.9295 50.6817C21.9728 53.7623 26.8685 55.7784 32.1958 56.3064L19.0749 79.0321ZM55.2975 69.0876C54.8713 68.9729 54.4174 69.0323 54.0354 69.2529C53.6534 69.4736 53.3749 69.837 53.2613 70.2631L50.9246 79.0319L37.8038 56.306C43.131 55.7781 48.0267 53.762 52.07 50.6814L64.0596 71.4483L55.2975 69.0876Z" fill="white"/>
<path d="M24.5994 24.8367C24.2456 25.9266 24.5357 27.1003 25.3564 27.8999L28.0114 30.4865L27.3856 34.1399C27.1922 35.2693 27.6481 36.3891 28.5753 37.0624C29.0991 37.4428 29.7115 37.6358 30.3283 37.6358C30.8034 37.6358 31.281 37.5211 31.7223 37.289L35.0026 35.5633L38.2839 37.2872C39.2983 37.8201 40.5042 37.7328 41.4309 37.0589C42.3578 36.3852 42.813 35.2651 42.6189 34.1359L41.9914 30.4827L44.645 27.8947C45.4652 27.0947 45.7546 25.9208 45.4003 24.8312C45.0459 23.7417 44.1214 22.9625 42.9875 22.798L39.3192 22.2659L37.678 18.9425C37.1706 17.9152 36.1441 17.2773 34.9986 17.2773C34.9985 17.2773 34.9981 17.2773 34.9978 17.2773C33.8521 17.2777 32.8255 17.9162 32.3185 18.9438L30.6791 22.2681L27.0111 22.8022C25.8774 22.9675 24.9532 23.747 24.5994 24.8367ZM32.0213 25.4282C32.562 25.3495 33.0294 25.0097 33.2711 24.5198L34.999 21.0162L36.7288 24.5189C36.9709 25.0089 37.4384 25.3484 37.9791 25.4267L41.8454 25.9875L39.0487 28.7152C38.6576 29.0967 38.4791 29.6462 38.5716 30.1847L39.233 34.035L35.7746 32.2179C35.291 31.9638 34.7131 31.9639 34.2295 32.2183L30.772 34.0371L31.4315 30.1866C31.5238 29.648 31.345 29.0985 30.9537 28.7171L28.1555 25.991L32.0213 25.4282Z" fill="white"/>
<path d="M35 49.1403C46.5343 49.1403 55.918 39.7566 55.918 28.2223C55.918 19.7208 50.8412 12.1296 42.9844 8.88264C42.1363 8.53202 41.166 8.93544 40.816 9.78278C40.4659 10.6301 40.8688 11.601 41.7162 11.9511C48.3264 14.6829 52.5977 21.0698 52.5977 28.2223C52.5977 37.9257 44.7034 45.82 35 45.82C25.2966 45.82 17.4023 37.9257 17.4023 28.2223C17.4023 21.0527 21.6875 14.6602 28.3194 11.9365C29.1675 11.5882 29.5728 10.6182 29.2245 9.77016C28.876 8.92199 27.9063 8.51691 27.0581 8.86505C19.1754 12.1025 14.082 19.7006 14.082 28.2223C14.082 39.7566 23.4659 49.1403 35 49.1403Z" fill="white"/>
<path d="M35.0215 10.625C35.4581 10.625 35.8864 10.4474 36.1952 10.1386C36.504 9.82979 36.6816 9.40146 36.6816 8.96484C36.6816 8.52822 36.504 8.0999 36.1952 7.79111C35.8864 7.48232 35.4581 7.30469 35.0215 7.30469C34.5849 7.30469 34.1565 7.48232 33.8478 7.79111C33.5373 8.0999 33.3613 8.52822 33.3613 8.96484C33.3613 9.40146 33.5373 9.82979 33.8478 10.1386C34.1565 10.4474 34.5849 10.625 35.0215 10.625Z" fill="white"/>
</svg>
