<svg width="197" height="53" viewBox="0 0 197 53" fill="none" xmlns="http://www.w3.org/2000/svg">
<g clip-path="url(#clip0)">
<path opacity="0.4" d="M47.6856 24.1637C47.6856 24.0472 47.6856 23.989 47.6856 23.8725C47.6276 23.9307 47.5697 23.9307 47.5118 23.989C46.9903 24.2802 46.5268 24.5132 46.1791 24.6879C45.8315 24.8626 45.2521 24.9791 44.7306 25.1538C44.2091 25.3285 44.0353 25.0373 43.8615 24.9791C43.6876 24.9791 43.6297 25.0956 43.3979 24.9791C43.2241 24.8626 42.5288 24.9209 42.2391 24.6879C42.4709 25.445 43.8035 26.4934 44.7885 26.6681C45.8315 26.8428 46.4109 26.6681 46.4109 26.6681C46.4109 26.6681 46.8744 27.134 47.3959 27.0758C46.0632 28.2406 45.4259 28.6483 44.2091 28.7648C44.6147 28.1241 44.7885 27.8329 44.7306 27.7747C44.6726 27.6582 42.7606 28.6483 41.9494 28.6483C41.1382 28.6483 40.2112 28.5901 39.2262 28.2406C38.2412 27.8329 36.6188 27.5417 36.2132 26.9011C38.1253 27.5417 39.1682 27.0758 39.9794 27.0758C40.7326 27.0758 41.7176 26.4934 41.7176 26.4934C41.7176 26.4934 40.7906 26.3769 40.0373 26.3769C39.5159 25.445 38.3571 25.2703 37.1403 24.6296C39.5738 25.678 40.7906 24.9208 40.7906 24.9208C40.7906 24.9208 39.6897 24.3384 39.4579 23.5813C40.6747 23.6395 42.2971 22.1252 42.2971 22.1252C42.2971 22.1252 38.0674 21.4846 35.8076 19.4461C37.6618 19.5044 39.9215 18.8055 39.9215 17.6406C39.9215 16.4176 39.8635 17.4659 37.9515 17.2329C36.0974 17 35.4021 16.5923 35.4021 16.5923C35.4021 16.5923 37.1403 16.534 36.5029 15.5439C38.5888 16.0681 39.8056 15.7769 40.9065 14.7285C38.5309 14.9615 37.2562 14.3208 37.2562 14.3208C37.2562 14.3208 38.6468 14.3209 39.2262 13.5055C38.2991 13.3307 37.6618 13.2725 36.3291 13.156C34.9965 13.0395 34.8806 12.6901 34.8806 12.6901C34.8806 12.6901 36.3291 12.2241 36.2132 11.6417C36.1553 11.0593 35.2282 11.5835 33.8376 10.1274C35.0544 10.8263 35.6338 10.4187 35.6338 10.4187C35.6338 10.4187 34.8806 9.66151 34.475 9.13733C34.0694 8.61316 33.6638 8.20547 33.5479 7.56481C33.4321 6.92415 33.7218 6.63294 33.4321 6.28349C33.1423 5.93404 33.4321 5.11865 33.0265 5.11865C32.6209 5.11865 32.9106 5.4681 32.6209 6.10876C32.3891 6.74942 32.1574 7.04063 32.1574 7.68129C32.1574 8.32195 30.535 10.3022 30.0135 11.8165C30.9406 11.5252 31.4621 10.7681 31.4621 10.7681C31.4621 10.7681 30.9406 12.0494 30.7088 12.5154C30.4771 12.9813 30.1294 13.156 29.8976 13.5637C29.6659 13.9714 29.4921 13.9714 29.0865 14.1461C28.6809 14.3208 28.6229 14.4956 28.6229 14.6703C28.6229 14.845 28.7388 15.1362 29.2603 15.1945C28.4491 15.4274 27.1165 16.0099 26.7109 16.2428C26.2474 16.4758 26.595 16.8252 26.9426 16.9417C27.3482 17.0582 27.9276 17.2329 28.6809 17.0582C29.4341 16.8835 29.7818 16.6505 29.7818 16.6505C29.7818 16.6505 29.55 16.9417 29.3762 17.3494C29.2603 17.7571 25.61 19.5044 24.1035 19.6791C25.3203 20.2033 29.2024 19.5044 30.1874 18.8055C28.7968 21.1934 27.4062 21.4263 26.3632 21.834C25.2624 22.2417 24.5671 22.0088 24.2774 22.3582C24.0456 22.6494 23.9876 24.1055 27.3482 24.1637C26.8268 24.9208 25.7838 24.6879 25.5521 25.1538C25.2624 25.5615 25.4941 26.2604 26.4212 26.3769C27.3482 26.4934 26.9426 26.9593 26.9426 26.9593C26.6529 27.4252 26.3053 28.0077 26.0735 28.1241C25.8418 28.2406 25.2044 27.7747 24.8568 27.7165C24.5091 27.6 23.6979 27.5417 23.2924 26.9011C24.1615 26.9011 24.9147 26.4351 24.7988 26.0857C24.6829 25.7362 23.6979 25.7362 23.1765 25.2703C22.655 24.8044 22.1335 24.5132 21.8438 23.8725C22.5391 24.1055 23.2924 23.4648 23.0606 23.1154C22.8288 22.7659 22.1335 22.9989 21.2644 22.1252C22.3653 22.3582 23.0026 21.6593 22.8868 21.3681C22.7709 21.0769 21.3224 21.2516 20.5691 19.9121C21.0906 20.0868 21.9597 19.9703 21.9597 19.7956C21.9597 19.6208 21.2644 19.5044 20.8009 18.6307C20.3374 17.7571 20.5691 17.2329 20.2215 16.8252C20.1056 16.5923 20.1056 13.7384 19.9897 13.7384C19.8738 13.7384 19.5841 15.1362 19.6421 15.5439C19.6421 15.9516 19.7579 16.3593 19.5841 16.7088C19.4103 17.0582 19.4103 17.3494 19.4103 17.6406C19.4103 17.9318 19.1206 18.1066 19.0626 18.2813C19.0047 18.5143 18.3674 18.6307 18.3674 18.8055C18.3674 18.9802 18.8309 19.0384 18.9468 19.1549C19.0626 19.2132 18.0776 19.8538 17.4403 19.9121C16.8029 19.9703 16.9768 20.145 16.8029 20.145C16.6291 20.145 16.5712 20.0285 16.5132 20.0868C16.4553 20.145 16.4553 20.5527 16.8609 20.4945C17.2665 20.4945 17.2665 20.7857 17.5562 20.8439C17.8459 20.9022 18.1935 20.8439 18.1935 20.8439C18.1935 20.8439 17.9618 21.2516 17.6721 21.3099C17.4403 21.3681 17.0347 21.3099 16.9768 21.5428C16.9188 21.7176 17.2085 22.0088 17.6141 22.067C18.0197 22.067 18.3094 21.9505 18.3094 21.9505C18.3094 21.9505 17.6141 22.5912 17.0926 22.5912C16.5712 22.6494 15.8179 22.5912 15.7021 22.7659C15.5862 22.9406 15.6441 23.1736 16.2815 23.3483C16.9188 23.523 16.9188 23.756 16.9188 23.756C16.9188 23.756 16.2815 23.8143 16.2235 23.9307C16.1656 24.0472 16.3394 24.3384 16.8609 24.3384C17.4403 24.3384 17.6721 24.1637 17.6721 24.1637C17.6721 24.1637 16.9768 24.6296 16.5712 24.9208C16.1656 25.2121 15.2965 25.1538 15.0647 25.3868C14.8329 25.6197 14.3694 25.5033 14.1376 25.5615C13.9059 25.5615 13.6162 25.8527 14.0218 26.2022C14.4853 26.5516 15.5282 26.5516 15.5282 26.5516C15.5282 26.5516 14.9488 27.1923 15.6441 27.4252C15.5282 27.9494 14.0797 28.5318 13.9059 28.5901C13.7321 28.6483 13.3265 28.5901 13.0947 28.7066C12.8629 28.823 12.805 29.289 13.4424 29.4637C14.0797 29.6384 14.4853 30.2208 15.3544 30.1626C14.9488 30.5121 13.5582 31.0945 13.5582 31.0945C13.5582 31.0945 12.1676 30.2791 11.5303 29.289C10.8929 28.3571 10.2556 27.4252 9.85 27.0758C11.3565 27.4835 12.4574 27.4835 13.1526 27.367C13.8479 27.2505 14.3115 27.134 14.3115 26.9593C14.3115 26.8428 12.805 26.6099 12.5732 26.4934C13.1526 26.2022 13.0368 25.7945 13.0368 25.7945C13.0368 25.7945 11.9359 26.0857 10.835 25.0373C9.67618 23.989 8.34353 22.3582 7.88 20.9604C9.32853 22.5912 10.9509 23.4066 11.6462 23.6978C12.3415 23.989 13.9059 24.2219 14.8909 23.756C13.0947 23.1736 11.9938 22.1835 11.9938 22.1835C11.9938 22.1835 13.6741 21.4846 13.3844 20.2615C12.2256 20.2615 10.835 19.7956 10.0238 19.0967C9.21265 18.3978 9.09676 18.456 9.09676 18.456C9.09676 18.456 10.5453 17.5241 10.1397 16.5923C10.0238 16.4176 9.15471 16.5923 8.51735 16.1846C7.88 15.7769 7.76412 15.7769 7.47441 15.4274C8.05382 15.5439 9.09676 15.2527 8.92294 14.7285C8.80706 14.1461 7.99588 14.0879 7.59029 13.5055C7.76412 13.2725 7.76412 13.0978 7.64824 12.9813C7.99588 12.8648 8.11176 12.2824 8.05382 11.9912C7.99588 11.6417 7.59029 10.8846 7.18471 10.4187C6.895 10.0692 6.72118 8.61316 6.60529 7.73953C6.48941 7.85601 6.37353 7.9725 6.31559 8.08898C6.31559 8.14722 6.25765 8.20547 6.25765 8.20547C6.08382 8.55492 5.96794 9.07909 5.96794 9.48678C5.91 9.95272 5.79412 10.4769 5.56235 10.7099C5.33059 11.0011 5.04088 11.234 4.98294 11.467C4.925 11.7 4.34559 11.7582 4.34559 11.9912C4.34559 12.2241 4.46147 12.5736 4.63529 12.6901C4.75118 12.8066 5.09882 12.8066 5.09882 12.8066C5.09882 12.8066 4.69323 13.389 4.05588 13.6802C3.41853 13.9714 3.12882 14.2626 3.07088 14.4956C3.07088 14.6703 3.24471 14.9615 3.65029 15.0198C4.05588 15.078 4.05588 15.311 4.34559 15.3692C4.63529 15.3692 4.63529 15.078 4.86706 15.078C5.09882 15.078 5.21471 15.078 5.27265 15.1945C5.27265 15.2527 4.63529 15.5439 4.51941 15.8351C4.46147 16.1263 3.88206 16.2428 3.59235 16.3011C3.24471 16.4176 2.78118 16.3011 2.66529 16.4758C2.54941 16.6505 1.85412 17.0582 1.79618 17.2912C1.79618 17.5241 2.49147 17.5241 2.66529 17.6989C2.83912 17.8736 3.88206 18.1648 4.11382 18.1648C4.28765 18.1648 4.28765 18.223 4.28765 18.2813C4.28765 18.3395 3.70824 18.1648 3.47647 18.5143C3.18676 18.8637 3.24471 19.0967 2.66529 19.0384C2.14382 18.9219 2.02794 19.5044 1.15882 19.6209C0.985 19.6209 0.753235 19.6209 0.463529 19.6209C0.231765 20.6692 0.115882 21.7758 0.0579412 22.9406C0.347647 22.9406 0.579412 22.9406 0.753235 22.8824C1.27471 22.7077 2.20176 22.7077 2.20176 22.7077C2.20176 22.7077 2.31765 22.8824 2.60735 22.8241C2.49147 23.0571 1.62235 23.4648 1.15882 23.9307C0.985 24.1055 0.579412 24.3384 0 24.6296C0 25.3868 0.0579412 26.0857 0.115882 26.8428C0.521471 26.8428 0.869118 26.7846 0.869118 26.7846C0.869118 26.7846 0.869118 27.2505 0.173824 27.5417C0.173824 27.6582 0.173824 27.7165 0.231765 27.8329C1.10088 28.1241 2.49147 27.9494 2.49147 27.9494C2.49147 27.9494 1.97 27.9494 1.21676 28.823C1.04294 28.9978 0.869118 29.1725 0.637353 29.289C1.04294 31.0362 1.62235 32.7835 2.37559 34.356C2.54941 34.2395 2.78118 34.0648 2.955 33.8901C2.83912 34.0648 2.66529 34.2978 2.43353 34.589C6.31559 42.6263 14.4274 48.1011 23.8718 48.1011C37.0244 48.1011 47.6856 37.3846 47.6856 24.1637ZM40.7906 30.8615L41.5438 31.6769L40.4429 32.1428L40.2112 31.5022L40.7906 30.8615ZM10.7771 35.4626C10.3715 35.0549 10.2556 34.5307 10.2556 34.5307L11.6462 35.2296C11.6462 35.2296 11.1826 35.3461 10.7771 35.4626ZM12.6891 33.7154L13.79 33.7736L13.3265 34.2978L12.6891 33.7154ZM15.0647 39.1318C15.0647 39.1318 14.1956 38.7824 13.6162 37.967C14.7171 38.3747 16.2815 38.1417 16.2815 38.1417L15.0647 39.1318Z" fill="white"/>
<path d="M44.7306 20.0867C44.6147 20.0867 44.5568 20.0867 44.4409 20.0867C44.4409 20.0285 44.4409 20.0285 44.4409 19.9702C44.5568 20.0285 44.6727 20.0867 44.7306 20.0867C44.7306 20.1449 44.7306 20.0867 44.7306 20.0867Z" fill="#FEFEFE"/>
<g opacity="0.3">
<g opacity="0.3">
<path opacity="0.3" d="M46.816 22.7079C46.4105 22.5332 46.5263 22.7662 46.2366 22.7079C45.9469 22.6497 45.4255 22.5332 45.4255 22.5332C45.4255 22.5332 46.1207 23.3486 46.7581 23.5233C46.3525 23.7563 45.3096 23.8145 45.3096 23.8145C45.3096 23.8145 46.0628 24.0475 46.2946 24.2222C46.4105 24.3387 47.1637 24.2805 47.7431 24.2805C47.7431 23.7563 47.6852 23.2903 47.6272 22.7662C47.2216 22.7662 46.9899 22.7662 46.816 22.7079Z" fill="#5392F5"/>
</g>
</g>
<path d="M24.4509 2.14843C24.4509 2.14843 24.0453 2.20667 23.9295 2.32316C22.423 3.25503 21.1483 4.41986 20.2212 5.8759C17.8456 9.60338 15.47 13.3891 13.3842 17.233C12.3992 19.0385 11.8777 21.0188 12.0515 23.1155C12.2253 24.6298 12.8048 25.9693 13.8477 27.1341C14.0795 27.3671 14.3692 27.4836 13.9636 27.9495C13.5 28.3572 13.5 29.1144 13.3842 29.755C13.2683 30.5704 13.3262 31.444 13.4421 32.2594C13.6739 33.7737 13.7898 35.288 13.6159 36.8605L13.3842 37.9671C12.3412 40.9957 11.7618 44.0825 12.1095 47.344C12.1674 47.8682 12.2833 48.3924 12.515 48.8583C12.9206 49.7319 12.8048 50.5473 12.3412 51.3045C11.4721 52.7605 11.8777 52.8188 13.3842 52.9352C14.2533 52.9935 15.1803 53.0517 16.1074 52.9352C16.9765 52.8188 17.1503 52.5275 16.9765 51.7704C16.8027 51.0133 16.9765 50.2561 17.3242 49.5572C18.425 47.1693 20.3371 45.3056 22.365 43.5583C22.6548 43.3254 22.7127 43.5583 22.8865 43.6748C24.335 44.9561 25.8995 46.1792 27.6956 47.0528C27.9853 47.1693 27.8695 47.4023 27.8695 47.577C27.9274 49.0913 28.1012 50.6056 28.7386 52.0034C28.9703 52.5858 29.5498 52.9352 30.245 52.9935C32.215 53.0517 34.1271 52.9935 36.0971 52.9352C36.155 52.9352 36.213 52.877 36.2709 52.877C36.0392 52.4693 35.6915 52.3528 35.3439 52.1781C34.9383 52.0034 34.4748 51.8869 34.0112 51.7122C33.0842 51.3045 32.7365 50.7221 33.0262 49.7902C33.4898 48.0429 33.7215 46.2374 33.6636 44.4319C33.6636 43.7913 33.5477 43.1506 33.3739 42.5682L32.5627 39.7726C32.273 38.666 32.0412 37.5594 31.9833 36.3946L31.8095 33.7155C31.7515 32.8418 31.6936 31.7352 31.5198 30.9781C31.5198 30.9781 31.5777 30.9199 31.6936 30.8616C31.8674 30.7451 32.0992 30.6869 32.3889 30.6287C35.0542 29.8133 36.3289 28.1243 35.9812 25.8528C35.8074 24.7462 35.228 23.7561 34.5327 22.8825C33.7215 21.9506 33.2 20.9023 33.0262 19.6792C32.8524 18.6891 32.6786 17.699 32.4468 16.7671C32.1571 15.4276 31.6356 14.2045 30.7086 13.1561C30.3609 12.7484 30.0712 12.2825 30.245 11.7001C30.303 11.4089 30.1871 11.3506 29.9553 11.3506C29.6656 11.2924 29.3759 11.1759 29.2021 11.0594C30.7086 11.2924 32.3309 11.5254 33.9533 11.4671C34.243 11.4671 34.6486 11.5254 34.8224 11.1759C34.9962 10.8265 34.7065 10.6517 34.4748 10.3023C35.9233 10.477 35.8074 9.25393 36.2709 8.61327C36.4448 8.32206 36.0971 8.08909 35.8653 7.91437C35.4018 7.56492 34.8803 7.27371 34.4168 6.92426C33.8374 6.51656 33.6056 5.93415 33.7795 5.23524C33.9533 4.53634 33.5477 3.95393 33.1421 3.42975C32.7945 3.02206 32.6206 2.67261 32.9103 2.14843C33.0842 1.79898 33.0262 1.44953 33.0262 1.10008C32.9103 0.0517289 32.0992 -0.297722 31.23 0.342938C30.303 1.04184 29.26 1.15832 28.1592 1.04184C27.8115 0.983597 27.4639 0.867114 27.2321 0.575905C26.8265 0.168213 26.363 -0.122996 25.7836 0.051729C25.1462 0.226454 24.8565 0.692388 24.6827 1.27481C24.393 1.50777 24.6248 1.74074 24.4509 2.14843Z" fill="white"/>
<path d="M28.7965 30.5706C28.2171 30.5706 27.8115 30.4541 27.5218 30.2211C27.4059 30.1047 27.1162 30.5706 26.305 30.2794C26.305 30.2794 27.1741 30.1629 27.1162 29.8134C27.0582 29.5805 27.0582 29.5805 26.9423 29.3475C26.8265 29.1728 26.1891 29.5805 25.7256 29.4058C25.7256 29.4058 26.6526 29.1728 26.7685 28.9398C26.8844 28.7651 26.7106 28.5904 26.6526 28.3574C26.5368 28.1827 26.1312 28.4739 25.5518 28.1827C25.5518 28.1827 26.8265 28.0079 27.0003 27.6003C27.5218 26.6101 28.7965 25.4453 28.7965 25.4453C28.7965 25.4453 27.29 27.309 27.4059 28.3574C27.5218 29.464 28.7965 30.5706 28.7965 30.5706Z" fill="#AEAEAE"/>
<path d="M24.1614 19.854C24.3353 19.854 24.9147 20.1452 25.3782 20.2035C25.7838 20.2035 26.2473 20.3782 26.4791 20.5529C26.4791 20.5529 25.6679 20.3199 25.61 20.4947C25.552 20.6111 25.7258 20.8441 25.7838 21.1353C25.7838 21.1936 26.7688 21.4848 26.7688 21.6013C26.7688 21.6013 25.7838 21.4848 25.8417 21.6595C25.8997 21.8342 25.9576 22.0672 26.0156 22.2419C26.0156 22.3002 26.8267 22.4749 26.8267 22.5331C26.8267 22.5331 26.0735 22.5331 26.0735 22.7079C25.9576 24.4551 17.0347 26.9013 17.0347 26.9013C17.0347 26.9013 25.2623 24.3386 25.552 22.009C25.7258 20.9606 24.1614 19.854 24.1614 19.854Z" fill="#AEAEAE"/>
<path d="M63.6194 35.9932C61.5567 35.9932 59.9344 35.5855 58.7524 34.7701C57.5935 33.9547 56.7824 32.8481 56.3188 31.4503C55.8553 30.0292 55.6235 28.3984 55.6235 26.558V16.4589C55.6235 14.5253 55.8553 12.8479 56.3188 11.4268C56.7824 10.0057 57.5935 8.91075 58.7524 8.14196C59.9344 7.37317 61.5567 6.98877 63.6194 6.98877C65.5662 6.98877 67.0843 7.32657 68.1736 8.00218C69.2861 8.65449 70.0741 9.598 70.5376 10.8327C71.0011 12.0675 71.2329 13.5002 71.2329 15.131V17.5072H66.2963V15.0611C66.2963 14.269 66.2499 13.5468 66.1572 12.8945C66.0877 12.2422 65.8675 11.7297 65.4967 11.3569C65.1491 10.9609 64.5349 10.7628 63.6542 10.7628C62.7735 10.7628 62.1245 10.9725 61.7074 11.3918C61.3134 11.7879 61.0584 12.3354 60.9425 13.0343C60.8267 13.7099 60.7687 14.4787 60.7687 15.3406V27.6413C60.7687 28.6664 60.8498 29.5167 61.0121 30.1923C61.1743 30.8446 61.464 31.3455 61.8812 31.6949C62.3215 32.0211 62.9125 32.1842 63.6542 32.1842C64.5117 32.1842 65.1143 31.9861 65.4619 31.5901C65.8328 31.1708 66.0645 30.6233 66.1572 29.9477C66.2499 29.2721 66.2963 28.5149 66.2963 27.6762V25.1253H71.2329V27.3967C71.2329 29.074 71.0127 30.565 70.5724 31.8697C70.132 33.151 69.3556 34.1644 68.2431 34.9099C67.1538 35.6321 65.6126 35.9932 63.6194 35.9932Z" fill="white"/>
<path d="M74.8845 35.6088V7.30328H79.0911V25.1602L86.8088 7.30328H90.2505V35.6088H86.0093V17.4723L78.2567 35.6088H74.8845Z" fill="white"/>
<path d="M94.6434 35.6088V7.30328H107.715V11.1472H99.7538V19.1846H100.866C102.767 19.1846 104.354 19.4525 105.629 19.9883C106.927 20.5009 107.9 21.3628 108.549 22.5743C109.198 23.7624 109.523 25.3699 109.523 27.3967C109.523 28.9809 109.326 30.3088 108.932 31.3804C108.538 32.4288 107.947 33.2675 107.159 33.8965C106.394 34.5255 105.467 34.9681 104.378 35.2244C103.288 35.4806 102.048 35.6088 100.658 35.6088H94.6434ZM99.7538 32.1143H100.692C101.666 32.1143 102.454 31.9745 103.056 31.6949C103.659 31.4154 104.099 30.9261 104.378 30.2272C104.656 29.505 104.783 28.5266 104.76 27.2918C104.737 25.8242 104.435 24.7059 103.856 23.9371C103.3 23.1683 102.222 22.7839 100.623 22.7839H99.7538V32.1143Z" fill="white"/>
<path d="M112.908 35.6088V7.30328H117.115V25.1602L124.833 7.30328H128.274V35.6088H124.033V17.4723L116.281 35.6088H112.908Z" fill="white"/>
<path d="M132.598 35.6088V7.30328H140.872C142.564 7.30328 143.931 7.61778 144.974 8.24679C146.04 8.8758 146.817 9.79602 147.303 11.0075C147.813 12.1956 148.068 13.64 148.068 15.3406C148.068 17.1811 147.755 18.6721 147.129 19.8136C146.504 20.9318 145.623 21.7472 144.487 22.2598C143.375 22.7723 142.054 23.0286 140.524 23.0286H137.743V35.6088H132.598ZM137.743 19.3943H139.69C140.617 19.3943 141.335 19.2661 141.845 19.0099C142.378 18.7303 142.737 18.2993 142.923 17.7169C143.131 17.1112 143.236 16.3075 143.236 15.3057C143.236 14.2806 143.155 13.4536 142.992 12.8246C142.853 12.1723 142.529 11.6947 142.019 11.3918C141.532 11.089 140.756 10.9376 139.69 10.9376H137.743V19.3943Z" fill="white"/>
<path d="M149.192 35.6088L154.824 22.9587C153.666 22.3529 152.727 21.4211 152.008 20.1631C151.29 18.8817 150.931 17.3092 150.931 15.4455C150.931 13.5817 151.267 12.0558 151.939 10.8677C152.611 9.65624 153.619 8.75932 154.963 8.1769C156.331 7.59448 158.057 7.30328 160.143 7.30328H166.644V35.6088H161.534V24.1468H159.9C159.854 24.1468 159.749 24.1468 159.587 24.1468C159.425 24.1468 159.321 24.1468 159.274 24.1468L154.79 35.6088H149.192ZM160.387 20.5125H161.534V10.9026H160.282C158.776 10.9026 157.64 11.2754 156.875 12.0209C156.111 12.7431 155.728 13.8846 155.728 15.4455C155.728 17.0529 156.064 18.2993 156.736 19.1846C157.432 20.0699 158.648 20.5125 160.387 20.5125Z" fill="white"/>
<path d="M171.031 35.6088V7.30328H176.141V19.1846H177.184L181.738 7.30328H186.849L181.495 20.6523L187.266 35.6088H182.051L177.184 22.5743H176.141V35.6088H171.031Z" fill="white"/>
<path d="M56.382 44.2693V41.0788H55.6936V40.5663H57.7586V41.0788H57.0639V44.2693H56.382Z" fill="white"/>
<path d="M59.1471 44.3206C58.8751 44.3206 58.6606 44.265 58.5033 44.154C58.3461 44.043 58.2335 43.8849 58.1655 43.6799C58.1018 43.4749 58.0699 43.2336 58.0699 42.956V41.8797C58.0699 41.602 58.1018 41.3607 58.1655 41.1557C58.2335 40.9507 58.3461 40.7927 58.5033 40.6816C58.6606 40.5706 58.8751 40.5151 59.1471 40.5151C59.419 40.5151 59.6315 40.5706 59.7844 40.6816C59.9416 40.7927 60.0521 40.9507 60.1158 41.1557C60.1838 41.3607 60.2178 41.602 60.2178 41.8797V42.956C60.2178 43.2336 60.1838 43.4749 60.1158 43.6799C60.0521 43.8849 59.9416 44.043 59.7844 44.154C59.6315 44.265 59.419 44.3206 59.1471 44.3206ZM59.1471 43.8145C59.2788 43.8145 59.3701 43.776 59.4211 43.6991C59.4764 43.6223 59.5082 43.5219 59.5167 43.398C59.5295 43.2699 59.5359 43.1375 59.5359 43.0008V41.8412C59.5359 41.7003 59.5295 41.5679 59.5167 41.444C59.5082 41.3202 59.4764 41.2198 59.4211 41.1429C59.3701 41.0618 59.2788 41.0212 59.1471 41.0212C59.0153 41.0212 58.9219 41.0618 58.8666 41.1429C58.8114 41.2198 58.7774 41.3202 58.7647 41.444C58.7562 41.5679 58.7519 41.7003 58.7519 41.8412V43.0008C58.7519 43.1375 58.7562 43.2699 58.7647 43.398C58.7774 43.5219 58.8114 43.6223 58.8666 43.6991C58.9219 43.776 59.0153 43.8145 59.1471 43.8145Z" fill="white"/>
<path d="M60.8412 45.4866V40.5663H61.5231V40.861C61.6039 40.767 61.7016 40.6859 61.8163 40.6176C61.9311 40.5492 62.067 40.5151 62.2242 40.5151C62.4154 40.5151 62.5663 40.5663 62.6768 40.6688C62.7915 40.7671 62.8765 40.893 62.9317 41.0468C62.9869 41.1963 63.0231 41.35 63.0401 41.5081C63.057 41.6618 63.0655 41.7942 63.0655 41.9053V42.8022C63.0655 43.0627 63.0401 43.3105 62.9891 43.5454C62.9381 43.776 62.8446 43.9639 62.7086 44.1092C62.5769 44.2501 62.3899 44.3206 62.1478 44.3206C62.016 44.3206 61.8992 44.2885 61.7972 44.2245C61.6952 44.1561 61.6039 44.0793 61.5231 43.9938V45.4866H60.8412ZM62.0139 43.7824C62.1329 43.7824 62.2179 43.7397 62.2689 43.6543C62.3198 43.5646 62.3517 43.445 62.3645 43.2955C62.3772 43.146 62.3836 42.9816 62.3836 42.8022V41.9053C62.3836 41.7515 62.3751 41.6106 62.3581 41.4825C62.3411 41.35 62.305 41.2454 62.2497 41.1685C62.1945 41.0916 62.1074 41.0532 61.9884 41.0532C61.8992 41.0532 61.8142 41.0724 61.7335 41.1109C61.6527 41.1493 61.5826 41.1942 61.5231 41.2454V43.6158C61.5869 43.6628 61.6591 43.7034 61.7398 43.7376C61.8206 43.7675 61.9119 43.7824 62.0139 43.7824Z" fill="white"/>
<path d="M63.6856 44.2693V40.5663H65.1707V41.0596H64.3676V44.2693H63.6856Z" fill="white"/>
<path d="M66.5351 44.3206C66.2632 44.3206 66.0486 44.265 65.8914 44.154C65.7342 44.043 65.6216 43.8849 65.5536 43.6799C65.4899 43.4749 65.458 43.2336 65.458 42.956V41.8797C65.458 41.602 65.4899 41.3607 65.5536 41.1557C65.6216 40.9507 65.7342 40.7927 65.8914 40.6816C66.0486 40.5706 66.2632 40.5151 66.5351 40.5151C66.8071 40.5151 67.0195 40.5706 67.1725 40.6816C67.3297 40.7927 67.4402 40.9507 67.5039 41.1557C67.5719 41.3607 67.6059 41.602 67.6059 41.8797V42.956C67.6059 43.2336 67.5719 43.4749 67.5039 43.6799C67.4402 43.8849 67.3297 44.043 67.1725 44.154C67.0195 44.265 66.8071 44.3206 66.5351 44.3206ZM66.5351 43.8145C66.6669 43.8145 66.7582 43.776 66.8092 43.6991C66.8644 43.6223 66.8963 43.5219 66.9048 43.398C66.9175 43.2699 66.9239 43.1375 66.9239 43.0008V41.8412C66.9239 41.7003 66.9175 41.5679 66.9048 41.444C66.8963 41.3202 66.8644 41.2198 66.8092 41.1429C66.7582 41.0618 66.6669 41.0212 66.5351 41.0212C66.4034 41.0212 66.3099 41.0618 66.2547 41.1429C66.1995 41.2198 66.1655 41.3202 66.1527 41.444C66.1442 41.5679 66.14 41.7003 66.14 41.8412V43.0008C66.14 43.1375 66.1442 43.2699 66.1527 43.398C66.1655 43.5219 66.1995 43.6223 66.2547 43.6991C66.3099 43.776 66.4034 43.8145 66.5351 43.8145Z" fill="white"/>
<path d="M68.2292 44.2693V40.5663H69.2618C69.5125 40.5663 69.7079 40.609 69.8481 40.6944C69.9926 40.7756 70.0946 40.8845 70.1541 41.0212C70.2178 41.1536 70.2518 41.2967 70.256 41.4504C70.2603 41.6341 70.2305 41.7985 70.1668 41.9437C70.1031 42.0889 69.9713 42.1914 69.7716 42.2512C69.9246 42.2811 70.0415 42.3452 70.1222 42.4434C70.2072 42.5374 70.2645 42.6506 70.2943 42.783C70.3283 42.9154 70.3453 43.0521 70.3453 43.193C70.3453 43.4066 70.3134 43.5945 70.2497 43.7568C70.1902 43.9191 70.0839 44.0451 69.931 44.1348C69.7823 44.2245 69.5698 44.2693 69.2936 44.2693H68.2292ZM68.8985 43.7504H69.1407C69.2384 43.7504 69.3276 43.7376 69.4084 43.7119C69.4891 43.682 69.5528 43.6244 69.5996 43.539C69.6505 43.4535 69.676 43.3297 69.676 43.1674C69.676 42.9752 69.6527 42.8364 69.6059 42.751C69.5634 42.6613 69.504 42.6057 69.4275 42.5844C69.3552 42.563 69.2703 42.5524 69.1725 42.5524H68.8985V43.7504ZM68.8985 42.059H69.2299C69.3616 42.059 69.4657 42.0206 69.5422 41.9437C69.6187 41.8668 69.6569 41.7302 69.6569 41.5337C69.6569 41.3586 69.6123 41.2369 69.5231 41.1685C69.4338 41.1002 69.3127 41.066 69.1598 41.066H68.8985V42.059Z" fill="white"/>
<path d="M70.8745 44.2693V40.5663H71.5565V42.0975C71.565 42.0975 71.5756 42.0975 71.5883 42.0975C71.6053 42.0975 71.6202 42.0975 71.633 42.0975C71.6457 42.0975 71.6563 42.0975 71.6648 42.0975C71.9155 42.1018 72.128 42.121 72.3022 42.1551C72.4806 42.185 72.6251 42.2406 72.7356 42.3217C72.8461 42.3986 72.9268 42.5075 72.9778 42.6484C73.0288 42.7851 73.0543 42.9624 73.0543 43.1802C73.0543 43.3809 73.0288 43.5518 72.9778 43.6927C72.9268 43.8294 72.8439 43.9404 72.7292 44.0259C72.6145 44.1113 72.4636 44.1732 72.2767 44.2117C72.0897 44.2501 71.8624 44.2693 71.5947 44.2693H70.8745ZM71.5565 43.8657H71.5947C71.8114 43.8657 71.9814 43.8465 72.1046 43.808C72.2278 43.7696 72.3149 43.7013 72.3659 43.603C72.4169 43.5005 72.4424 43.3574 72.4424 43.1738C72.4424 43.0072 72.419 42.877 72.3723 42.783C72.3298 42.6848 72.2491 42.6143 72.1301 42.5716C72.0154 42.5246 71.8475 42.5011 71.6266 42.5011C71.6223 42.5011 71.6117 42.5011 71.5947 42.5011C71.5777 42.5011 71.565 42.5011 71.5565 42.5011V43.8657ZM73.4749 44.2693V40.5663H74.1569V44.2693H73.4749Z" fill="white"/>
<path d="M74.8455 44.2693V40.5663H75.4191V43.0585L76.5281 40.5663H77.0635V44.2693H76.5026V41.7579L75.4 44.2693H74.8455ZM75.9736 40.1627C75.6677 40.1627 75.451 40.0794 75.3235 39.9128C75.2003 39.7463 75.1387 39.5391 75.1387 39.2914H75.5339C75.5381 39.4452 75.5721 39.5647 75.6358 39.6502C75.7038 39.7313 75.8164 39.7719 75.9736 39.7719C76.1351 39.7719 76.2477 39.7292 76.3114 39.6438C76.3794 39.5583 76.4134 39.4409 76.4134 39.2914H76.8149C76.8149 39.5391 76.7512 39.7463 76.6237 39.9128C76.5005 40.0794 76.2838 40.1627 75.9736 40.1627Z" fill="white"/>
<path d="M78.8835 45.2111V43.8145C79.0109 43.7162 79.1278 43.5988 79.234 43.4621C79.3402 43.3254 79.4337 43.1524 79.5144 42.9432C79.5952 42.7339 79.6589 42.4755 79.7056 42.168C79.7524 41.8604 79.7779 41.4889 79.7821 41.0532L79.7949 40.5663H81.4584V43.7824H81.9045V45.2111H81.4074L81.35 44.2693H79.438L79.3806 45.2111H78.8835ZM79.5463 43.7824H80.8019V41.0596H80.3239L80.3111 41.1942C80.3069 41.6469 80.2835 42.0249 80.241 42.3281C80.2028 42.6271 80.1475 42.8727 80.0753 43.0649C80.0073 43.2528 79.9266 43.4023 79.8331 43.5133C79.7439 43.6244 79.6483 43.7141 79.5463 43.7824Z" fill="white"/>
<path d="M83.303 44.3206C83.0311 44.3206 82.8165 44.265 82.6593 44.154C82.5021 44.043 82.3895 43.8849 82.3215 43.6799C82.2577 43.4749 82.2259 43.2336 82.2259 42.956V41.8797C82.2259 41.602 82.2577 41.3607 82.3215 41.1557C82.3895 40.9507 82.5021 40.7927 82.6593 40.6816C82.8165 40.5706 83.0311 40.5151 83.303 40.5151C83.5749 40.5151 83.7874 40.5706 83.9403 40.6816C84.0976 40.7927 84.208 40.9507 84.2718 41.1557C84.3398 41.3607 84.3738 41.602 84.3738 41.8797V42.956C84.3738 43.2336 84.3398 43.4749 84.2718 43.6799C84.208 43.8849 84.0976 44.043 83.9403 44.154C83.7874 44.265 83.5749 44.3206 83.303 44.3206ZM83.303 43.8145C83.4347 43.8145 83.5261 43.776 83.5771 43.6991C83.6323 43.6223 83.6642 43.5219 83.6727 43.398C83.6854 43.2699 83.6918 43.1375 83.6918 43.0008V41.8412C83.6918 41.7003 83.6854 41.5679 83.6727 41.444C83.6642 41.3202 83.6323 41.2198 83.5771 41.1429C83.5261 41.0618 83.4347 41.0212 83.303 41.0212C83.1713 41.0212 83.0778 41.0618 83.0226 41.1429C82.9673 41.2198 82.9333 41.3202 82.9206 41.444C82.9121 41.5679 82.9078 41.7003 82.9078 41.8412V43.0008C82.9078 43.1375 82.9121 43.2699 82.9206 43.398C82.9333 43.5219 82.9673 43.6223 83.0226 43.6991C83.0778 43.776 83.1713 43.8145 83.303 43.8145Z" fill="white"/>
<path d="M84.978 44.2693L85.0162 40.5663H85.5197L86.3356 42.8406L87.1577 40.5663H87.6612L87.6995 44.2693H87.1259V42.059L86.4439 43.9041H86.2336L85.5516 42.0719V44.2693H84.978Z" fill="white"/>
</g>
<defs>
<clipPath id="clip0">
<rect width="197" height="53" fill="white"/>
</clipPath>
</defs>
</svg>
