<svg width="12" height="12" viewBox="0 0 12 12" fill="none" xmlns="http://www.w3.org/2000/svg">
<path d="M10 9C10 8.72917 9.90104 8.49479 9.70312 8.29688C9.50521 8.09896 9.27083 8 9 8C8.72917 8 8.49479 8.09896 8.29688 8.29688C8.09896 8.49479 8 8.72917 8 9C8 9.27083 8.09896 9.50521 8.29688 9.70312C8.49479 9.90104 8.72917 10 9 10C9.27083 10 9.50521 9.90104 9.70312 9.70312C9.90104 9.50521 10 9.27083 10 9ZM4 3C4 2.72917 3.90104 2.49479 3.70312 2.29688C3.50521 2.09896 3.27083 2 3 2C2.72917 2 2.49479 2.09896 2.29688 2.29688C2.09896 2.49479 2 2.72917 2 3C2 3.27083 2.09896 3.50521 2.29688 3.70312C2.49479 3.90104 2.72917 4 3 4C3.27083 4 3.50521 3.90104 3.70312 3.70312C3.90104 3.50521 4 3.27083 4 3ZM12 9C12 9.82812 11.707 10.5352 11.1211 11.1211C10.5352 11.707 9.82812 12 9 12C8.17188 12 7.46484 11.707 6.87891 11.1211C6.29297 10.5352 6 9.82812 6 9C6 8.17188 6.29297 7.46484 6.87891 6.87891C7.46484 6.29297 8.17188 6 9 6C9.82812 6 10.5352 6.29297 11.1211 6.87891C11.707 7.46484 12 8.17188 12 9ZM11.25 0.5C11.25 0.604167 11.2161 0.703125 11.1484 0.796875L2.89844 11.7969C2.79948 11.9323 2.66667 12 2.5 12H1.25C1.11458 12 0.997396 11.9505 0.898438 11.8516C0.799479 11.7526 0.75 11.6354 0.75 11.5C0.75 11.3958 0.783854 11.2969 0.851562 11.2031L9.10156 0.203125C9.20052 0.0677083 9.33333 0 9.5 0H10.75C10.8854 0 11.0026 0.0494792 11.1016 0.148438C11.2005 0.247396 11.25 0.364583 11.25 0.5ZM6 3C6 3.82812 5.70703 4.53516 5.12109 5.12109C4.53516 5.70703 3.82812 6 3 6C2.17188 6 1.46484 5.70703 0.878906 5.12109C0.292969 4.53516 0 3.82812 0 3C0 2.17188 0.292969 1.46484 0.878906 0.878906C1.46484 0.292969 2.17188 0 3 0C3.82812 0 4.53516 0.292969 5.12109 0.878906C5.70703 1.46484 6 2.17188 6 3Z" fill="white"/>
</svg>
