<svg width="229" height="50" viewBox="0 0 229 50" fill="none" xmlns="http://www.w3.org/2000/svg">
<g clip-path="url(#clip0)">
<path opacity="0.4" d="M40.9059 20.6212C40.9059 20.5218 40.9059 20.4721 40.9059 20.3727C40.8562 20.4224 40.8065 20.4224 40.7568 20.4721C40.3095 20.7206 39.9118 20.9194 39.6136 21.0685C39.3154 21.2176 38.8184 21.317 38.371 21.4661C37.9237 21.6152 37.7746 21.3667 37.6255 21.317C37.4764 21.317 37.4267 21.4164 37.2278 21.317C37.0787 21.2176 36.4823 21.2673 36.2338 21.0685C36.4326 21.7147 37.5758 22.6093 38.4207 22.7584C39.3154 22.9075 39.8124 22.7584 39.8124 22.7584C39.8124 22.7584 40.21 23.156 40.6574 23.1063C39.5142 24.1004 38.9675 24.4483 37.9237 24.5477C38.2716 24.001 38.4207 23.7525 38.371 23.7028C38.3213 23.6034 36.6811 24.4483 35.9853 24.4483C35.2894 24.4483 34.4942 24.3986 33.6492 24.1004C32.8042 23.7525 31.4125 23.504 31.0646 22.9572C32.7048 23.504 33.5995 23.1063 34.2953 23.1063C34.9415 23.1063 35.7864 22.6093 35.7864 22.6093C35.7864 22.6093 34.9912 22.5099 34.345 22.5099C33.8977 21.7146 32.9036 21.5655 31.8599 21.0188C33.9474 21.9135 34.9912 21.2673 34.9912 21.2673C34.9912 21.2673 34.0468 20.7703 33.848 20.1241C34.8918 20.1738 36.2835 18.8816 36.2835 18.8816C36.2835 18.8816 32.6551 18.3348 30.7167 16.5952C32.3072 16.6449 34.2456 16.0485 34.2456 15.0544C34.2456 14.0106 34.1959 14.9053 32.5557 14.7065C30.9652 14.5077 30.3688 14.1597 30.3688 14.1597C30.3688 14.1597 31.8599 14.11 31.3131 13.2651C33.1025 13.7124 34.1462 13.4639 35.0906 12.5692C33.0528 12.768 31.9593 12.2213 31.9593 12.2213C31.9593 12.2213 33.1522 12.2213 33.6492 11.5255C32.8539 11.3763 32.3072 11.3266 31.164 11.2272C30.0209 11.1278 29.9214 10.8296 29.9214 10.8296C29.9214 10.8296 31.164 10.432 31.0646 9.93494C31.0149 9.43791 30.2197 9.88524 29.0268 8.64266C30.0706 9.2391 30.5676 8.89117 30.5676 8.89117C30.5676 8.89117 29.9214 8.24503 29.5735 7.7977C29.2256 7.35037 28.8777 7.00244 28.7783 6.45571C28.6789 5.90897 28.9274 5.66045 28.6789 5.36223C28.4303 5.06401 28.6789 4.36816 28.3309 4.36816C27.983 4.36816 28.2315 4.66638 27.983 5.21312C27.7842 5.75986 27.5854 6.00838 27.5854 6.55511C27.5854 7.10185 26.1937 8.79177 25.7464 10.0841C26.5416 9.83554 26.9889 9.18939 26.9889 9.18939C26.9889 9.18939 26.5416 10.2829 26.3428 10.6805C26.144 11.0781 25.8458 11.2272 25.647 11.5752C25.4481 11.9231 25.299 11.9231 24.9511 12.0722C24.6032 12.2213 24.5535 12.3704 24.5535 12.5195C24.5535 12.6686 24.6529 12.9171 25.1002 12.9669C24.4044 13.1657 23.2612 13.6627 22.9133 13.8615C22.5156 14.0603 22.8139 14.3585 23.1121 14.458C23.46 14.5574 23.957 14.7065 24.6032 14.5574C25.2493 14.4083 25.5475 14.2094 25.5475 14.2094C25.5475 14.2094 25.3487 14.458 25.1996 14.8059C25.1002 15.1538 21.9689 16.6449 20.6766 16.794C21.7204 17.2413 25.0505 16.6449 25.8955 16.0485C24.7026 18.0863 23.5097 18.2851 22.615 18.633C21.6707 18.981 21.0742 18.7822 20.8257 19.0804C20.6269 19.3289 20.5772 20.5715 23.46 20.6212C23.0127 21.2673 22.118 21.0685 21.9192 21.4661C21.6707 21.8141 21.8695 22.4105 22.6647 22.5099C23.46 22.6093 23.1121 23.0069 23.1121 23.0069C22.8636 23.4046 22.5653 23.9016 22.3665 24.001C22.1677 24.1004 21.621 23.7028 21.3228 23.6531C21.0245 23.5537 20.3287 23.504 19.9808 22.9572C20.7263 22.9572 21.3725 22.5596 21.2731 22.2614C21.1736 21.9632 20.3287 21.9632 19.8814 21.5655C19.434 21.1679 18.9867 20.9194 18.7382 20.3727C19.3346 20.5715 19.9808 20.0247 19.782 19.7265C19.5831 19.4283 18.9867 19.6271 18.2411 18.8816C19.1855 19.0804 19.7322 18.4839 19.6328 18.2354C19.5334 17.9869 18.2908 18.136 17.6447 16.9928C18.092 17.1419 18.8376 17.0425 18.8376 16.8934C18.8376 16.7443 18.2411 16.6449 17.8435 15.8994C17.4459 15.1538 17.6447 14.7065 17.3465 14.3585C17.2471 14.1597 17.2471 11.7243 17.1477 11.7243C17.0483 11.7243 16.7997 12.9171 16.8495 13.2651C16.8495 13.613 16.9489 13.9609 16.7997 14.2591C16.6506 14.5574 16.6506 14.8059 16.6506 15.0544C16.6506 15.3029 16.4021 15.452 16.3524 15.6011C16.3027 15.7999 15.756 15.8994 15.756 16.0485C15.756 16.1976 16.1536 16.2473 16.253 16.3467C16.3524 16.3964 15.5075 16.9431 14.9607 16.9928C14.414 17.0425 14.5631 17.1916 14.414 17.1916C14.2649 17.1916 14.2152 17.0922 14.1655 17.1419C14.1158 17.1916 14.1158 17.5396 14.4637 17.4899C14.8116 17.4899 14.8116 17.7384 15.0601 17.7881C15.3086 17.8378 15.6069 17.7881 15.6069 17.7881C15.6069 17.7881 15.4081 18.136 15.1595 18.1857C14.9607 18.2354 14.6128 18.1857 14.5631 18.3845C14.5134 18.5336 14.7619 18.7822 15.1098 18.8319C15.4578 18.8319 15.7063 18.7324 15.7063 18.7324C15.7063 18.7324 15.1098 19.2792 14.6625 19.2792C14.2152 19.3289 13.569 19.2792 13.4696 19.4283C13.3702 19.5774 13.4199 19.7762 13.9667 19.9253C14.5134 20.0744 14.5134 20.2733 14.5134 20.2733C14.5134 20.2733 13.9667 20.323 13.917 20.4224C13.8672 20.5218 14.0164 20.7703 14.4637 20.7703C14.9607 20.7703 15.1595 20.6212 15.1595 20.6212C15.1595 20.6212 14.5631 21.0188 14.2152 21.2673C13.8672 21.5158 13.1217 21.4661 12.9229 21.6649C12.7241 21.8638 12.3264 21.7644 12.1276 21.8141C11.9288 21.8141 11.6803 22.0626 12.0282 22.3608C12.4258 22.659 13.3205 22.659 13.3205 22.659C13.3205 22.659 12.8235 23.2058 13.4199 23.4046C13.3205 23.8519 12.0779 24.3489 11.9288 24.3986C11.7797 24.4483 11.4318 24.3986 11.233 24.498C11.0342 24.5974 10.9845 24.9951 11.5312 25.1442C12.0779 25.2933 12.4258 25.7903 13.1714 25.7406C12.8235 26.0388 11.6306 26.5359 11.6306 26.5359C11.6306 26.5359 10.4377 25.84 9.89098 24.9951C9.34424 24.1998 8.7975 23.4046 8.44958 23.1063C9.74187 23.4543 10.6862 23.4543 11.2827 23.3549C11.8791 23.2555 12.2767 23.156 12.2767 23.0069C12.2767 22.9075 10.9845 22.7087 10.7856 22.6093C11.2827 22.3608 11.1833 22.0129 11.1833 22.0129C11.1833 22.0129 10.2389 22.2614 9.29454 21.3667C8.30047 20.4721 7.15729 19.0804 6.75966 17.8875C8.00225 19.2792 9.39394 19.975 9.99038 20.2235C10.5868 20.4721 11.9288 20.6709 12.7738 20.2733C11.233 19.7762 10.2886 18.9313 10.2886 18.9313C10.2886 18.9313 11.73 18.3348 11.4815 17.291C10.4874 17.291 9.29454 16.8934 8.59869 16.297C7.90284 15.7005 7.80343 15.7502 7.80343 15.7502C7.80343 15.7502 9.04602 14.955 8.69809 14.1597C8.59869 14.0106 7.85314 14.1597 7.3064 13.8118C6.75966 13.4639 6.66026 13.4639 6.41174 13.1657C6.90877 13.2651 7.80343 13.0166 7.65432 12.5692C7.55492 12.0722 6.85907 12.0225 6.51115 11.5255C6.66026 11.3266 6.66026 11.1775 6.56085 11.0781C6.85907 10.9787 6.95848 10.4817 6.90877 10.2332C6.85907 9.93494 6.51115 9.2888 6.16322 8.89117C5.9147 8.59295 5.76559 7.35037 5.66619 6.60482C5.56678 6.70422 5.46737 6.80363 5.41767 6.90304C5.41767 6.95274 5.36797 7.00244 5.36797 7.00244C5.21886 7.30066 5.11945 7.74799 5.11945 8.09592C5.06975 8.49355 4.97034 8.94088 4.77153 9.13969C4.57271 9.38821 4.3242 9.58702 4.27449 9.78583C4.22479 9.98465 3.72775 10.0344 3.72775 10.2332C3.72775 10.432 3.82716 10.7302 3.97627 10.8296C4.07568 10.929 4.3739 10.929 4.3739 10.929C4.3739 10.929 4.02598 11.426 3.47924 11.6746C2.9325 11.9231 2.68398 12.1716 2.63428 12.3704C2.63428 12.5195 2.78339 12.768 3.13131 12.8177C3.47924 12.8674 3.47924 13.0663 3.72775 13.116C3.97627 13.116 3.97627 12.8674 4.17509 12.8674C4.3739 12.8674 4.47331 12.8674 4.52301 12.9669C4.52301 13.0166 3.97627 13.2651 3.87686 13.5136C3.82716 13.7621 3.33013 13.8615 3.08161 13.9112C2.78339 14.0106 2.38576 13.9112 2.28636 14.0603C2.18695 14.2094 1.59051 14.5574 1.54081 14.7562C1.54081 14.955 2.13725 14.955 2.28636 15.1041C2.43547 15.2532 3.33013 15.5017 3.52894 15.5017C3.67805 15.5017 3.67805 15.5514 3.67805 15.6011C3.67805 15.6508 3.18102 15.5017 2.9822 15.7999C2.73369 16.0982 2.78339 16.297 2.28636 16.2473C1.83903 16.1479 1.73962 16.6449 0.994068 16.7443C0.844958 16.7443 0.646144 16.7443 0.397627 16.7443C0.198814 17.639 0.0994068 18.5833 0.0497034 19.5774C0.29822 19.5774 0.497034 19.5774 0.646144 19.5277C1.09347 19.3786 1.88873 19.3786 1.88873 19.3786C1.88873 19.3786 1.98814 19.5277 2.23665 19.478C2.13725 19.6768 1.3917 20.0247 0.994068 20.4224C0.844958 20.5715 0.497034 20.7703 0 21.0188C0 21.6649 0.0497034 22.2614 0.0994068 22.9075C0.447331 22.9075 0.745551 22.8578 0.745551 22.8578C0.745551 22.8578 0.745551 23.2555 0.14911 23.504C0.14911 23.6034 0.14911 23.6531 0.198814 23.7525C0.944365 24.001 2.13725 23.8519 2.13725 23.8519C2.13725 23.8519 1.68992 23.8519 1.04377 24.5974C0.894661 24.7466 0.745551 24.8957 0.546737 24.9951C0.894661 26.4862 1.3917 27.9773 2.03784 29.3193C2.18695 29.2199 2.38576 29.0708 2.53487 28.9216C2.43547 29.0708 2.28636 29.2696 2.08754 29.5181C5.41767 36.3772 12.3761 41.0493 20.4778 41.0493C31.7605 41.0493 40.9059 31.9038 40.9059 20.6212ZM34.9912 26.3371L35.6373 27.0329L34.693 27.4305L34.4942 26.8838L34.9912 26.3371ZM9.24483 30.2636C8.89691 29.9157 8.7975 29.4684 8.7975 29.4684L9.99038 30.0648C9.99038 30.0648 9.59276 30.1642 9.24483 30.2636ZM10.885 28.7725L11.8294 28.8222L11.4318 29.2696L10.885 28.7725ZM12.9229 33.3949C12.9229 33.3949 12.1773 33.0967 11.6803 32.4009C12.6247 32.7488 13.9667 32.55 13.9667 32.55L12.9229 33.3949Z" fill="#2F80ED"/>
<g opacity="0.3">
<g opacity="0.3">
<path opacity="0.3" d="M40.1605 19.3786C39.8125 19.2295 39.9119 19.4283 39.6634 19.3786C39.4149 19.3289 38.9676 19.2295 38.9676 19.2295C38.9676 19.2295 39.564 19.9253 40.1107 20.0744C39.7628 20.2733 38.8682 20.323 38.8682 20.323C38.8682 20.323 39.5143 20.5218 39.7131 20.6709C39.8125 20.7703 40.4587 20.7206 40.9557 20.7206C40.9557 20.2733 40.906 19.8756 40.8563 19.4283C40.5084 19.4283 40.3096 19.4283 40.1605 19.3786Z" fill="#2F80ED"/>
</g>
</g>
<path d="M20.9746 1.83347C20.9746 1.83347 20.6267 1.88317 20.5273 1.98258C19.235 2.77783 18.1415 3.7719 17.3463 5.01449C15.3084 8.1955 13.2706 11.4262 11.4813 14.7066C10.6363 16.2475 10.189 17.9374 10.3381 19.7267C10.4872 21.019 10.9842 22.1622 11.8789 23.1562C12.0777 23.355 12.3262 23.4544 11.9783 23.8521C11.5807 24.2 11.5807 24.8461 11.4813 25.3929C11.3818 26.0887 11.4315 26.8343 11.531 27.5301C11.7298 28.8224 11.8292 30.1147 11.6801 31.4567L11.4813 32.4011C10.5866 34.9856 10.0896 37.6199 10.3878 40.4033C10.4375 40.8506 10.5369 41.298 10.7357 41.6956C11.0836 42.4411 10.9842 43.137 10.5866 43.7831C9.84104 45.0257 10.189 45.0754 11.4813 45.1748C12.2268 45.2245 13.0221 45.2742 13.8173 45.1748C14.5629 45.0754 14.712 44.8269 14.5629 44.1808C14.4138 43.5346 14.5629 42.8885 14.8611 42.292C15.8054 40.2542 17.4457 38.6637 19.1853 37.1726C19.4338 36.9738 19.4835 37.1726 19.6326 37.272C20.8752 38.3655 22.2172 39.4092 23.758 40.1548C24.0065 40.2542 23.9071 40.453 23.9071 40.6021C23.9568 41.8944 24.1059 43.1867 24.6527 44.3796C24.8515 44.8766 25.3485 45.1748 25.9449 45.2245C27.6349 45.2742 29.2751 45.2245 30.965 45.1748C31.0147 45.1748 31.0644 45.1251 31.1141 45.1251C30.9153 44.7772 30.6171 44.6778 30.3188 44.5287C29.9709 44.3796 29.5733 44.2802 29.1757 44.1311C28.3804 43.7831 28.0822 43.2861 28.3307 42.4908C28.7283 40.9997 28.9271 39.4589 28.8774 37.9181C28.8774 37.3714 28.778 36.8247 28.6289 36.3276L27.9331 33.9419C27.6846 32.9975 27.4857 32.0531 27.436 31.0591L27.2869 28.7727C27.2372 28.0272 27.1875 27.0828 27.0384 26.4367C27.0384 26.4367 27.0881 26.3869 27.1875 26.3372C27.3366 26.2378 27.5354 26.1881 27.784 26.1384C30.0703 25.4426 31.1638 24.0012 30.8656 22.0627C30.7165 21.1184 30.2194 20.2734 29.623 19.5279C28.9271 18.7326 28.4798 17.838 28.3307 16.7942C28.1816 15.9492 28.0325 15.1043 27.8337 14.309C27.5852 13.1658 27.1378 12.1221 26.3426 11.2274C26.0443 10.8795 25.7958 10.4819 25.9449 9.98483C25.9946 9.73631 25.8952 9.68661 25.6964 9.68661C25.4479 9.6369 25.1994 9.5375 25.0503 9.43809C26.3426 9.6369 27.7343 9.83572 29.126 9.78601C29.3745 9.78601 29.7224 9.83572 29.8715 9.53749C30.0206 9.23927 29.7721 9.09016 29.5733 8.79194C30.8159 8.94105 30.7165 7.89728 31.1141 7.35054C31.2632 7.10203 30.965 6.90321 30.7662 6.7541C30.3685 6.45588 29.9212 6.20737 29.5236 5.90915C29.0266 5.56122 28.8277 5.06419 28.9768 4.46775C29.126 3.87131 28.778 3.37427 28.4301 2.92694C28.1319 2.57902 27.9828 2.2808 28.2313 1.83347C28.3804 1.53525 28.3307 1.23703 28.3307 0.938807C28.2313 0.0441454 27.5354 -0.254075 26.7899 0.292662C25.9946 0.889103 25.1 0.98851 24.1556 0.889103C23.8574 0.8394 23.5592 0.739993 23.3604 0.491476C23.0124 0.143552 22.6148 -0.104965 22.1178 0.0441454C21.571 0.193256 21.3225 0.590883 21.1734 1.08792C20.9249 1.28673 21.1237 1.48554 20.9746 1.83347Z" fill="#2F80ED"/>
<path d="M24.7023 26.0887C24.2053 26.0887 23.8574 25.9893 23.6089 25.7905C23.5095 25.6911 23.2609 26.0887 22.5651 25.8402C22.5651 25.8402 23.3106 25.7408 23.2609 25.4426C23.2112 25.2438 23.2112 25.2438 23.1118 25.045C23.0124 24.8959 22.4657 25.2438 22.0681 25.0947C22.0681 25.0947 22.8633 24.8959 22.9627 24.697C23.0621 24.5479 22.913 24.3988 22.8633 24.2C22.7639 24.0509 22.416 24.2994 21.9189 24.0509C21.9189 24.0509 23.0124 23.9018 23.1615 23.5539C23.6089 22.7089 24.7023 21.7148 24.7023 21.7148C24.7023 21.7148 23.41 23.3054 23.5095 24.2C23.6089 25.1444 24.7023 26.0887 24.7023 26.0887Z" fill="white"/>
<path d="M20.7258 16.9434C20.8749 16.9434 21.372 17.1919 21.7696 17.2416C22.1175 17.2416 22.5151 17.3907 22.714 17.5398C22.714 17.5398 22.0181 17.341 21.9684 17.4901C21.9187 17.5895 22.0678 17.7883 22.1175 18.0368C22.1175 18.0865 22.9625 18.3351 22.9625 18.4345C22.9625 18.4345 22.1175 18.3351 22.1672 18.4842C22.2169 18.6333 22.2666 18.8321 22.3163 18.9812C22.3163 19.0309 23.0122 19.18 23.0122 19.2297C23.0122 19.2297 22.366 19.2297 22.366 19.3788C22.2666 20.8699 14.6123 22.9575 14.6123 22.9575C14.6123 22.9575 21.6702 20.7705 21.9187 18.7824C22.0678 17.8877 20.7258 16.9434 20.7258 16.9434Z" fill="white"/>
<path d="M56.5307 37.8571V14.0136H52.248V10.3061H65.6603V14.0136H61.4441V37.8571H56.5307Z" fill="#020303"/>
<path d="M66.5795 43.3333V34.2857H67.5423C67.9849 34.0363 68.4055 33.7075 68.8038 33.2993C69.2244 32.8685 69.6006 32.3016 69.9326 31.5986C70.2646 30.8957 70.5634 30 70.829 28.9116C71.1167 27.8005 71.3601 26.4512 71.5593 24.8639C71.7807 23.2766 71.9466 21.3946 72.0573 19.2177L72.6549 10.3061H84.54V34.2857H87.3619V43.3333H83.9425L83.6437 37.8571H70.3974L70.0654 43.3333H66.5795ZM72.1237 34.2857H79.8922V13.9116H76.5059L76.2072 20C76.1186 22.1769 75.9748 24.0249 75.7756 25.5442C75.5764 27.0408 75.344 28.288 75.0784 29.2857C74.8128 30.2608 74.514 31.0544 74.182 31.6667C73.8722 32.2789 73.5402 32.7778 73.1861 33.1633C72.8319 33.5488 72.4778 33.9229 72.1237 34.2857Z" fill="#020303"/>
<path d="M105.365 38.2313C103.396 38.2313 101.846 37.8345 100.718 37.0408C99.611 36.2472 98.8364 35.1701 98.3938 33.8095C97.9511 32.4263 97.7298 30.839 97.7298 29.0476V19.2177C97.7298 17.3356 97.9511 15.7029 98.3938 14.3197C98.8364 12.9365 99.611 11.8707 100.718 11.1225C101.846 10.3742 103.396 10 105.365 10C107.225 10 108.674 10.3288 109.715 10.9864C110.777 11.6213 111.529 12.5397 111.972 13.7415C112.415 14.9433 112.636 16.3379 112.636 17.9252V20.2381H107.922V17.8571C107.922 17.0862 107.878 16.3832 107.789 15.7483C107.723 15.1134 107.512 14.6145 107.158 14.2517C106.826 13.8662 106.24 13.6735 105.399 13.6735C104.558 13.6735 103.938 13.8776 103.54 14.2857C103.163 14.6712 102.92 15.2041 102.809 15.8844C102.699 16.542 102.643 17.2903 102.643 18.1293V30.102C102.643 31.0998 102.721 31.9274 102.876 32.585C103.031 33.22 103.307 33.7075 103.706 34.0476C104.126 34.3651 104.69 34.5238 105.399 34.5238C106.218 34.5238 106.793 34.3311 107.125 33.9456C107.479 33.5374 107.7 33.0045 107.789 32.3469C107.878 31.6893 107.922 30.9524 107.922 30.1361V27.6531H112.636V29.8639C112.636 31.4966 112.426 32.9478 112.005 34.2177C111.585 35.4649 110.843 36.4512 109.781 37.1769C108.741 37.8798 107.269 38.2313 105.365 38.2313Z" fill="#020303"/>
<path d="M116.123 37.8571V10.3061H120.14V27.6871L127.51 10.3061H130.797V37.8571H126.747V20.2041L119.343 37.8571H116.123Z" fill="#020303"/>
<path d="M134.992 37.8571V10.3061H147.475V14.0476H139.872V21.8707H140.935C142.749 21.8707 144.266 22.1315 145.483 22.6531C146.722 23.1519 147.652 23.9909 148.271 25.1701C148.891 26.3265 149.201 27.8912 149.201 29.8639C149.201 31.4059 149.013 32.6984 148.637 33.7415C148.26 34.7619 147.696 35.5782 146.944 36.1905C146.213 36.8027 145.328 37.2336 144.288 37.483C143.247 37.7324 142.063 37.8571 140.735 37.8571H134.992ZM139.872 34.4558H140.769C141.698 34.4558 142.451 34.3197 143.026 34.0476C143.602 33.7755 144.022 33.2993 144.288 32.619C144.553 31.9161 144.675 30.9637 144.653 29.7619C144.631 28.3333 144.343 27.2449 143.79 26.4966C143.258 25.7483 142.229 25.3742 140.702 25.3742H139.872V34.4558Z" fill="#020303"/>
<path d="M152.434 37.8571V10.3061H156.451V27.6871L163.821 10.3061H167.108V37.8571H163.058V20.2041L155.655 37.8571H152.434Z" fill="#020303"/>
<path d="M171.237 37.8571V10.3061H179.138C180.754 10.3061 182.059 10.6122 183.055 11.2245C184.074 11.8367 184.815 12.7324 185.28 13.9116C185.767 15.068 186.01 16.4739 186.01 18.1293C186.01 19.9206 185.711 21.3719 185.114 22.483C184.516 23.5714 183.675 24.3651 182.591 24.8639C181.528 25.3628 180.267 25.6122 178.806 25.6122H176.15V37.8571H171.237ZM176.15 22.0748H178.009C178.895 22.0748 179.581 21.9501 180.068 21.7007C180.577 21.4286 180.92 21.0091 181.097 20.4422C181.296 19.8526 181.396 19.0703 181.396 18.0952C181.396 17.0975 181.318 16.2925 181.163 15.6803C181.03 15.0454 180.72 14.5805 180.234 14.2857C179.769 13.9909 179.027 13.8435 178.009 13.8435H176.15V22.0748Z" fill="#020303"/>
<path d="M187.084 37.8571L192.462 25.5442C191.355 24.9546 190.459 24.0476 189.773 22.8231C189.087 21.576 188.744 20.0454 188.744 18.2313C188.744 16.4172 189.065 14.932 189.707 13.7755C190.348 12.5964 191.311 11.7234 192.595 11.1565C193.901 10.5896 195.55 10.3061 197.542 10.3061H203.75V37.8571H198.869V26.7007H197.309C197.265 26.7007 197.165 26.7007 197.01 26.7007C196.855 26.7007 196.756 26.7007 196.712 26.7007L192.429 37.8571H187.084ZM197.774 23.1633H198.869V13.8095H197.674C196.236 13.8095 195.151 14.1723 194.421 14.898C193.69 15.6009 193.325 16.712 193.325 18.2313C193.325 19.7959 193.646 21.0091 194.288 21.8707C194.952 22.7324 196.114 23.1633 197.774 23.1633Z" fill="#020303"/>
<path d="M207.938 37.8571V10.3061H212.819V21.8707H213.815L218.164 10.3061H223.044L217.931 23.2993L223.442 37.8571H218.462L213.815 25.1701H212.819V37.8571H207.938Z" fill="#020303"/>
</g>
<defs>
<clipPath id="clip0">
<rect width="229" height="50" fill="white"/>
</clipPath>
</defs>
</svg>
